<svg xmlns="http://www.w3.org/2000/svg" xmlns:xlink="http://www.w3.org/1999/xlink" width="500" zoomAndPan="magnify" viewBox="0 0 375 374.999991" height="500" preserveAspectRatio="xMidYMid meet" version="1.0"><defs><g/><clipPath id="id1"><path d="M 144.394531 155.0625 L 262.46875 155.0625 L 262.46875 208.839844 L 144.394531 208.839844 Z M 144.394531 155.0625 " clip-rule="nonzero"/></clipPath><clipPath id="id2"><path d="M 112.542969 186 L 230.605469 186 L 230.605469 239.796875 L 112.542969 239.796875 Z M 112.542969 186 " clip-rule="nonzero"/></clipPath></defs><rect x="-37.5" width="450" fill="#ffffff" y="-37.499999" height="449.999989" fill-opacity="1"/><rect x="-37.5" width="450" fill="#d9d9d9" y="-37.499999" height="449.999989" fill-opacity="1"/><rect x="-37.5" width="450" fill="#ffffff" y="-37.499999" height="449.999989" fill-opacity="1"/><rect x="-37.5" width="450" fill="#d9d9d9" y="-37.499999" height="449.999989" fill-opacity="1"/><g clip-path="url(#id1)"><path fill="#1a1a1a" d="M 262.460938 196.601562 C 262.441406 196.035156 262.421875 195.464844 262.402344 194.894531 C 262.359375 194.320312 262.308594 193.746094 262.257812 193.171875 C 262.210938 192.59375 262.113281 192.019531 262.035156 191.441406 C 261.964844 190.863281 261.851562 190.285156 261.738281 189.707031 L 261.566406 188.835938 C 261.503906 188.546875 261.425781 188.261719 261.355469 187.976562 C 261.207031 187.402344 261.074219 186.824219 260.898438 186.253906 C 260.71875 185.691406 260.539062 185.125 260.359375 184.558594 C 259.570312 182.308594 258.589844 180.121094 257.421875 178.027344 C 256.257812 175.933594 254.882812 173.957031 253.371094 172.089844 C 251.851562 170.230469 250.1875 168.472656 248.359375 166.886719 C 246.535156 165.296875 244.597656 163.863281 242.5625 162.601562 C 242.050781 162.296875 241.535156 161.964844 241.027344 161.691406 C 240.519531 161.417969 240.007812 161.144531 239.5 160.867188 C 238.992188 160.597656 238.46875 160.359375 237.957031 160.109375 L 237.183594 159.738281 L 236.398438 159.402344 C 232.230469 157.585938 227.9375 156.394531 223.652344 155.707031 C 221.507812 155.371094 219.363281 155.171875 217.234375 155.089844 C 216.699219 155.070312 216.167969 155.074219 215.636719 155.066406 L 214.839844 155.0625 L 214.042969 155.085938 C 213.515625 155.105469 212.988281 155.128906 212.460938 155.148438 C 211.933594 155.191406 211.40625 155.234375 210.882812 155.277344 C 210.359375 155.3125 209.835938 155.378906 209.316406 155.449219 C 208.796875 155.519531 208.277344 155.578125 207.761719 155.664062 C 206.730469 155.847656 205.683594 156.023438 204.746094 156.257812 C 204.261719 156.367188 203.785156 156.480469 203.304688 156.589844 C 202.832031 156.71875 202.359375 156.84375 201.890625 156.972656 C 201.421875 157.105469 200.953125 157.222656 200.492188 157.367188 C 200.035156 157.511719 199.578125 157.660156 199.121094 157.804688 C 195.484375 158.988281 192.082031 160.449219 188.9375 162.085938 C 185.792969 163.722656 182.898438 165.515625 180.226562 167.371094 C 178.585938 168.511719 177.027344 169.675781 175.542969 170.851562 C 174.816406 171.429688 174.105469 172.007812 173.414062 172.585938 C 170.929688 174.664062 168.667969 176.753906 166.589844 178.78125 C 162.75 182.53125 159.539062 186.105469 156.792969 189.285156 C 154.054688 192.472656 151.796875 195.28125 149.972656 197.589844 C 148.148438 199.902344 146.761719 201.71875 145.824219 202.953125 C 144.894531 204.195312 144.40625 204.847656 144.40625 204.847656 C 144.40625 204.847656 145.0625 204.367188 146.3125 203.457031 C 147.554688 202.535156 149.382812 201.171875 151.738281 199.421875 C 154.085938 197.671875 156.949219 195.523438 160.277344 193.085938 C 163.613281 190.660156 167.414062 187.933594 171.679688 185.148438 C 175.945312 182.371094 180.671875 179.503906 185.863281 176.992188 C 190.914062 174.546875 196.40625 172.441406 202.226562 171.210938 C 202.578125 171.128906 202.925781 171.046875 203.277344 170.964844 C 204.21875 170.730469 205.265625 170.558594 206.296875 170.375 C 206.8125 170.285156 207.332031 170.230469 207.851562 170.160156 C 208.375 170.089844 208.894531 170.023438 209.417969 169.984375 C 209.945312 169.941406 210.46875 169.898438 210.996094 169.855469 C 211.523438 169.835938 212.050781 169.816406 212.582031 169.796875 L 213.375 169.769531 L 214.171875 169.777344 C 214.703125 169.78125 215.234375 169.777344 215.769531 169.796875 C 217.898438 169.882812 220.042969 170.078125 222.1875 170.414062 C 226.472656 171.105469 230.765625 172.292969 234.933594 174.109375 L 235.71875 174.449219 L 236.492188 174.816406 C 237.007812 175.070312 237.527344 175.304688 238.035156 175.578125 C 238.546875 175.851562 239.054688 176.128906 239.5625 176.402344 C 240.074219 176.675781 240.585938 177.007812 241.097656 177.3125 C 243.132812 178.574219 245.070312 180.003906 246.894531 181.597656 C 248.722656 183.183594 250.386719 184.9375 251.90625 186.796875 C 253.417969 188.667969 254.796875 190.640625 255.957031 192.738281 C 257.125 194.828125 258.105469 197.019531 258.894531 199.265625 C 259.074219 199.832031 259.253906 200.398438 259.433594 200.964844 C 259.609375 201.53125 259.742188 202.113281 259.890625 202.683594 C 259.960938 202.972656 260.039062 203.253906 260.101562 203.546875 L 260.273438 204.414062 C 260.386719 204.996094 260.5 205.570312 260.574219 206.148438 C 260.648438 206.730469 260.75 207.304688 260.792969 207.878906 C 260.816406 208.144531 260.835938 208.402344 260.859375 208.664062 C 261.207031 207.429688 261.515625 206.175781 261.761719 204.894531 C 262.152344 202.75 262.390625 200.546875 262.449219 198.296875 C 262.457031 197.734375 262.480469 197.171875 262.460938 196.601562 " fill-opacity="1" fill-rule="nonzero"/></g><path fill="#545454" d="M 260.792969 207.878906 C 260.75 207.304688 260.648438 206.730469 260.574219 206.148438 C 260.5 205.570312 260.386719 204.996094 260.273438 204.414062 L 260.101562 203.546875 C 260.039062 203.253906 259.960938 202.972656 259.890625 202.683594 C 259.742188 202.113281 259.609375 201.53125 259.433594 200.964844 C 259.253906 200.398438 259.074219 199.832031 258.894531 199.265625 C 258.105469 197.019531 257.125 194.828125 255.957031 192.738281 C 254.796875 190.640625 253.417969 188.667969 251.90625 186.796875 C 250.386719 184.9375 248.722656 183.183594 246.894531 181.597656 C 245.070312 180.003906 243.132812 178.574219 241.097656 177.3125 C 240.585938 177.007812 240.074219 176.675781 239.5625 176.402344 C 239.054688 176.128906 238.546875 175.851562 238.035156 175.578125 C 237.527344 175.304688 237.007812 175.070312 236.492188 174.816406 L 235.71875 174.449219 L 234.933594 174.109375 C 230.765625 172.292969 226.472656 171.105469 222.1875 170.414062 C 220.042969 170.078125 217.898438 169.882812 215.769531 169.796875 C 215.234375 169.777344 214.703125 169.78125 214.171875 169.777344 L 213.375 169.769531 L 212.582031 169.796875 C 212.050781 169.816406 211.523438 169.835938 210.996094 169.855469 C 210.46875 169.898438 209.945312 169.941406 209.417969 169.984375 C 208.894531 170.023438 208.375 170.089844 207.851562 170.160156 C 207.332031 170.230469 206.8125 170.285156 206.296875 170.375 C 205.265625 170.558594 204.21875 170.730469 203.277344 170.964844 C 202.925781 171.046875 202.578125 171.128906 202.226562 171.210938 C 202.386719 171.175781 202.542969 171.140625 202.699219 171.109375 C 203.074219 171.03125 203.449219 170.957031 203.824219 170.882812 C 204.203125 170.804688 204.582031 170.757812 204.960938 170.691406 C 205.339844 170.628906 205.71875 170.570312 206.101562 170.507812 C 206.484375 170.460938 206.867188 170.410156 207.25 170.363281 C 208.035156 170.25 208.746094 170.214844 209.476562 170.148438 C 209.84375 170.121094 210.214844 170.121094 210.585938 170.101562 C 210.953125 170.085938 211.324219 170.070312 211.699219 170.078125 C 212.074219 170.082031 212.449219 170.082031 212.824219 170.085938 C 213.199219 170.101562 213.578125 170.121094 213.957031 170.136719 L 214.527344 170.164062 L 215.097656 170.214844 C 215.480469 170.253906 215.859375 170.273438 216.242188 170.320312 C 217.773438 170.5 219.3125 170.746094 220.84375 171.082031 C 223.90625 171.769531 226.957031 172.777344 229.835938 174.144531 L 230.375 174.394531 L 230.90625 174.667969 C 231.253906 174.855469 231.617188 175.027344 231.960938 175.222656 C 232.304688 175.417969 232.648438 175.613281 232.992188 175.808594 C 233.34375 176.003906 233.644531 176.214844 233.972656 176.414062 C 235.253906 177.242188 236.492188 178.171875 237.664062 179.191406 C 238.839844 180.207031 239.90625 181.324219 240.886719 182.484375 C 241.863281 183.648438 242.761719 184.863281 243.515625 186.132812 C 244.273438 187.402344 244.925781 188.707031 245.46875 190.039062 C 245.59375 190.375 245.71875 190.710938 245.84375 191.046875 C 245.96875 191.378906 246.058594 191.722656 246.171875 192.0625 C 246.222656 192.230469 246.285156 192.398438 246.328125 192.570312 L 246.460938 193.082031 C 246.546875 193.425781 246.644531 193.765625 246.703125 194.117188 C 246.765625 194.464844 246.863281 194.808594 246.90625 195.164062 C 246.960938 195.515625 247.015625 195.871094 247.070312 196.222656 C 247.109375 196.578125 247.148438 196.933594 247.183594 197.289062 C 247.226562 197.648438 247.226562 198.007812 247.257812 198.367188 C 247.324219 199.800781 247.292969 201.246094 247.164062 202.679688 C 246.902344 205.253906 246.339844 207.785156 245.484375 210.136719 C 245.390625 210.394531 245.292969 210.652344 245.191406 210.910156 C 245.058594 211.226562 244.949219 211.558594 244.800781 211.863281 C 244.660156 212.175781 244.519531 212.484375 244.378906 212.796875 C 244.054688 213.414062 243.730469 214.03125 243.414062 214.644531 C 243.046875 215.21875 242.714844 215.820312 242.34375 216.386719 C 242.152344 216.660156 241.960938 216.9375 241.769531 217.210938 C 241.578125 217.484375 241.398438 217.769531 241.183594 218.019531 C 239.574219 220.121094 237.726562 221.917969 235.703125 223.378906 C 233.683594 224.84375 231.488281 225.96875 229.226562 226.753906 C 226.964844 227.53125 224.644531 227.980469 222.371094 228.148438 C 221.800781 228.171875 221.234375 228.210938 220.675781 228.226562 C 220.109375 228.222656 219.554688 228.214844 219.003906 228.207031 C 218.453125 228.167969 217.90625 228.128906 217.367188 228.089844 C 216.828125 228.042969 216.296875 227.953125 215.769531 227.890625 C 213.667969 227.574219 211.691406 227.058594 209.859375 226.445312 C 207.808594 225.707031 205.957031 224.847656 204.316406 223.941406 C 204.054688 224.164062 203.792969 224.386719 203.53125 224.605469 C 202.847656 225.179688 202.191406 225.710938 201.535156 226.234375 C 203.167969 227.84375 205.164062 229.507812 207.589844 231.082031 C 209.484375 232.257812 211.625 233.378906 214.039062 234.300781 C 216.453125 235.230469 219.140625 235.949219 222.058594 236.308594 C 224.976562 236.675781 228.128906 236.691406 231.398438 236.195312 C 233.710938 235.839844 236.078125 235.210938 238.417969 234.300781 C 239.382812 233.925781 240.339844 233.507812 241.289062 233.035156 C 244.546875 231.410156 247.675781 229.179688 250.441406 226.441406 C 250.804688 226.109375 251.121094 225.746094 251.457031 225.386719 C 251.785156 225.027344 252.117188 224.664062 252.449219 224.296875 C 253.09375 223.554688 253.6875 222.769531 254.3125 221.988281 C 254.886719 221.183594 255.449219 220.363281 256.015625 219.527344 C 256.28125 219.089844 256.546875 218.648438 256.816406 218.210938 C 257.089844 217.769531 257.316406 217.308594 257.570312 216.855469 C 258.945312 214.296875 260.039062 211.550781 260.859375 208.664062 C 260.835938 208.402344 260.816406 208.144531 260.792969 207.878906 " fill-opacity="1" fill-rule="nonzero"/><g clip-path="url(#id2)"><path fill="#075e54" d="M 112.550781 198.257812 C 112.570312 198.828125 112.589844 199.398438 112.609375 199.96875 C 112.652344 200.539062 112.703125 201.113281 112.753906 201.6875 C 112.796875 202.265625 112.898438 202.839844 112.972656 203.417969 C 113.046875 203.996094 113.160156 204.574219 113.273438 205.15625 L 113.445312 206.023438 C 113.503906 206.3125 113.585938 206.597656 113.65625 206.886719 C 113.804688 207.457031 113.9375 208.039062 114.113281 208.605469 C 114.292969 209.171875 114.472656 209.738281 114.652344 210.304688 C 115.4375 212.550781 116.421875 214.738281 117.589844 216.832031 C 118.75 218.929688 120.128906 220.902344 121.640625 222.769531 C 123.160156 224.632812 124.824219 226.386719 126.652344 227.972656 C 128.476562 229.5625 130.414062 230.996094 132.449219 232.257812 C 132.960938 232.5625 133.472656 232.894531 133.984375 233.167969 C 134.492188 233.445312 135 233.71875 135.511719 233.992188 C 136.019531 234.261719 136.539062 234.5 137.054688 234.753906 L 137.828125 235.121094 L 138.613281 235.460938 C 142.78125 237.277344 147.074219 238.464844 151.359375 239.15625 C 153.5 239.488281 155.648438 239.6875 157.777344 239.773438 C 158.308594 239.792969 158.84375 239.785156 159.375 239.792969 L 160.171875 239.796875 L 160.964844 239.773438 C 161.496094 239.753906 162.023438 239.734375 162.550781 239.710938 C 163.078125 239.667969 163.601562 239.625 164.125 239.585938 C 164.648438 239.546875 165.171875 239.480469 165.691406 239.410156 C 166.214844 239.339844 166.734375 239.285156 167.25 239.195312 C 168.277344 239.011719 169.328125 238.835938 170.269531 238.605469 C 170.75 238.492188 171.226562 238.382812 171.707031 238.269531 C 172.179688 238.144531 172.648438 238.015625 173.121094 237.886719 C 173.585938 237.757812 174.058594 237.640625 174.519531 237.492188 C 174.976562 237.347656 175.433594 237.203125 175.890625 237.058594 C 179.527344 235.871094 182.929688 234.410156 186.074219 232.773438 C 189.21875 231.140625 192.113281 229.347656 194.78125 227.492188 C 196.425781 226.347656 197.984375 225.183594 199.46875 224.011719 C 200.195312 223.433594 200.90625 222.855469 201.597656 222.273438 C 204.082031 220.195312 206.339844 218.105469 208.421875 216.082031 C 212.261719 212.328125 215.472656 208.757812 218.21875 205.574219 C 220.953125 202.386719 223.214844 199.578125 225.039062 197.269531 C 226.863281 194.957031 228.25 193.140625 229.1875 191.90625 C 230.117188 190.664062 230.605469 190.011719 230.605469 190.011719 C 230.605469 190.011719 229.949219 190.492188 228.695312 191.40625 C 227.457031 192.328125 225.625 193.6875 223.269531 195.4375 C 220.921875 197.191406 218.0625 199.335938 214.730469 201.773438 C 211.394531 204.199219 207.597656 206.925781 203.332031 209.714844 C 199.066406 212.488281 194.339844 215.359375 189.144531 217.867188 C 184.097656 220.3125 178.601562 222.417969 172.78125 223.652344 C 172.433594 223.734375 172.082031 223.8125 171.730469 223.894531 C 170.789062 224.128906 169.746094 224.304688 168.714844 224.488281 C 168.195312 224.574219 167.679688 224.632812 167.160156 224.703125 C 166.636719 224.773438 166.113281 224.839844 165.589844 224.875 C 165.066406 224.917969 164.542969 224.960938 164.015625 225.003906 C 163.488281 225.023438 162.960938 225.046875 162.429688 225.066406 L 161.632812 225.089844 L 160.839844 225.085938 C 160.308594 225.078125 159.773438 225.082031 159.242188 225.0625 C 157.109375 224.980469 154.96875 224.78125 152.820312 224.445312 C 148.539062 223.757812 144.246094 222.566406 140.078125 220.75 L 139.292969 220.414062 L 138.519531 220.042969 C 138.003906 219.792969 137.484375 219.554688 136.972656 219.285156 C 136.464844 219.011719 135.957031 218.734375 135.449219 218.457031 C 134.9375 218.1875 134.421875 217.855469 133.914062 217.550781 C 131.878906 216.289062 129.941406 214.855469 128.117188 213.265625 C 126.289062 211.679688 124.625 209.921875 123.105469 208.0625 C 121.589844 206.195312 120.214844 204.21875 119.050781 202.125 C 117.886719 200.03125 116.902344 197.84375 116.117188 195.597656 C 115.9375 195.027344 115.757812 194.460938 115.574219 193.894531 C 115.402344 193.328125 115.269531 192.75 115.121094 192.175781 C 115.050781 191.890625 114.972656 191.605469 114.910156 191.316406 L 114.738281 190.445312 C 114.625 189.867188 114.511719 189.289062 114.4375 188.710938 C 114.363281 188.132812 114.261719 187.554688 114.21875 186.980469 C 114.195312 186.71875 114.175781 186.457031 114.152344 186.195312 C 113.800781 187.429688 113.496094 188.6875 113.25 189.96875 C 112.855469 192.109375 112.621094 194.3125 112.558594 196.5625 C 112.554688 197.125 112.53125 197.691406 112.550781 198.257812 " fill-opacity="1" fill-rule="nonzero"/></g><path fill="#04a775" d="M 114.21875 186.980469 C 114.261719 187.554688 114.363281 188.132812 114.4375 188.710938 C 114.511719 189.289062 114.625 189.867188 114.738281 190.445312 L 114.910156 191.316406 C 114.972656 191.605469 115.050781 191.890625 115.121094 192.175781 C 115.269531 192.75 115.402344 193.328125 115.574219 193.894531 C 115.757812 194.460938 115.9375 195.027344 116.117188 195.597656 C 116.902344 197.84375 117.886719 200.03125 119.050781 202.125 C 120.214844 204.21875 121.589844 206.195312 123.105469 208.0625 C 124.625 209.921875 126.289062 211.679688 128.117188 213.265625 C 129.941406 214.855469 131.878906 216.289062 133.914062 217.550781 C 134.421875 217.855469 134.9375 218.1875 135.449219 218.457031 C 135.957031 218.734375 136.464844 219.011719 136.972656 219.285156 C 137.484375 219.554688 138.003906 219.792969 138.519531 220.042969 L 139.292969 220.414062 L 140.078125 220.75 C 144.246094 222.566406 148.539062 223.757812 152.820312 224.445312 C 154.96875 224.78125 157.109375 224.980469 159.242188 225.0625 C 159.773438 225.082031 160.308594 225.078125 160.839844 225.085938 L 161.632812 225.089844 L 162.429688 225.066406 C 162.960938 225.046875 163.488281 225.023438 164.015625 225.003906 C 164.542969 224.960938 165.066406 224.917969 165.589844 224.875 C 166.113281 224.839844 166.636719 224.773438 167.160156 224.703125 C 167.679688 224.632812 168.195312 224.574219 168.714844 224.488281 C 169.746094 224.304688 170.789062 224.128906 171.730469 223.894531 C 172.082031 223.8125 172.433594 223.734375 172.78125 223.652344 C 172.625 223.683594 172.46875 223.722656 172.3125 223.753906 C 171.9375 223.828125 171.5625 223.902344 171.1875 223.980469 C 170.808594 224.054688 170.429688 224.101562 170.050781 224.167969 C 169.671875 224.230469 169.289062 224.292969 168.910156 224.351562 C 168.527344 224.402344 168.144531 224.449219 167.761719 224.496094 C 166.976562 224.613281 166.265625 224.648438 165.535156 224.710938 C 165.167969 224.742188 164.796875 224.742188 164.425781 224.757812 C 164.054688 224.773438 163.6875 224.792969 163.3125 224.78125 C 162.9375 224.777344 162.5625 224.777344 162.1875 224.777344 C 161.808594 224.757812 161.429688 224.738281 161.050781 224.722656 L 160.484375 224.695312 L 159.914062 224.644531 C 159.53125 224.609375 159.148438 224.585938 158.769531 224.542969 C 157.238281 224.363281 155.699219 224.117188 154.164062 223.777344 C 151.105469 223.089844 148.050781 222.085938 145.179688 220.714844 L 144.636719 220.464844 L 144.105469 220.191406 C 143.753906 220.003906 143.394531 219.835938 143.050781 219.640625 C 142.707031 219.441406 142.359375 219.246094 142.015625 219.050781 C 141.667969 218.855469 141.367188 218.644531 141.039062 218.445312 C 139.753906 217.621094 138.519531 216.691406 137.347656 215.667969 C 136.171875 214.65625 135.105469 213.539062 134.125 212.378906 C 133.148438 211.210938 132.25 210 131.496094 208.726562 C 130.738281 207.457031 130.085938 206.152344 129.542969 204.820312 C 129.417969 204.484375 129.292969 204.148438 129.164062 203.816406 C 129.039062 203.480469 128.953125 203.136719 128.839844 202.796875 C 128.789062 202.628906 128.726562 202.460938 128.679688 202.289062 L 128.550781 201.777344 C 128.460938 201.4375 128.367188 201.09375 128.308594 200.746094 C 128.242188 200.394531 128.148438 200.054688 128.101562 199.699219 C 128.046875 199.34375 127.992188 198.992188 127.9375 198.640625 C 127.902344 198.28125 127.863281 197.925781 127.828125 197.570312 C 127.785156 197.214844 127.78125 196.851562 127.753906 196.496094 C 127.683594 195.058594 127.714844 193.613281 127.84375 192.179688 C 128.109375 189.605469 128.671875 187.074219 129.527344 184.726562 C 129.621094 184.464844 129.714844 184.207031 129.816406 183.953125 C 129.953125 183.636719 130.0625 183.304688 130.210938 182.996094 C 130.351562 182.6875 130.492188 182.375 130.632812 182.066406 C 130.957031 181.445312 131.277344 180.832031 131.597656 180.21875 C 131.960938 179.640625 132.296875 179.039062 132.667969 178.476562 C 132.859375 178.199219 133.050781 177.925781 133.242188 177.648438 C 133.433594 177.375 133.613281 177.089844 133.828125 176.84375 C 135.433594 174.738281 137.285156 172.941406 139.308594 171.480469 C 141.328125 170.019531 143.523438 168.890625 145.785156 168.105469 C 148.046875 167.328125 150.367188 166.878906 152.640625 166.710938 C 153.207031 166.6875 153.773438 166.648438 154.335938 166.632812 C 154.898438 166.640625 155.457031 166.648438 156.007812 166.652344 C 156.558594 166.691406 157.105469 166.730469 157.644531 166.769531 C 158.183594 166.820312 158.710938 166.90625 159.242188 166.972656 C 161.34375 167.289062 163.320312 167.800781 165.148438 168.417969 C 167.203125 169.152344 169.054688 170.011719 170.695312 170.921875 C 170.957031 170.699219 171.21875 170.476562 171.480469 170.253906 C 172.164062 169.683594 172.820312 169.148438 173.472656 168.625 C 171.84375 167.015625 169.847656 165.351562 167.417969 163.777344 C 165.527344 162.601562 163.382812 161.480469 160.96875 160.558594 C 158.558594 159.632812 155.871094 158.914062 152.949219 158.550781 C 150.03125 158.183594 146.882812 158.171875 143.613281 158.664062 C 141.300781 159.019531 138.933594 159.648438 136.59375 160.558594 C 135.628906 160.933594 134.667969 161.351562 133.71875 161.828125 C 130.464844 163.453125 127.335938 165.679688 124.570312 168.421875 C 124.207031 168.75 123.886719 169.113281 123.554688 169.472656 C 123.226562 169.835938 122.894531 170.199219 122.5625 170.5625 C 121.917969 171.304688 121.324219 172.089844 120.699219 172.871094 C 120.125 173.675781 119.558594 174.496094 118.996094 175.332031 C 118.730469 175.769531 118.460938 176.210938 118.195312 176.652344 C 117.921875 177.089844 117.691406 177.550781 117.441406 178.003906 C 116.066406 180.5625 114.972656 183.3125 114.152344 186.195312 C 114.175781 186.457031 114.195312 186.71875 114.21875 186.980469 " fill-opacity="1" fill-rule="nonzero"/><g fill="#1a1a1a" fill-opacity="1"><g transform="translate(112.696512, 261.16192)"><g><path d="M 15.078125 -5.445312 C 15.078125 -3.34375 14.335938 -1.808594 12.847656 -0.835938 C 12 -0.277344 10.625 0 8.71875 0 L 2.792969 0 L 2.792969 -10.761719 L 8.71875 -10.761719 C 10.609375 -10.761719 11.984375 -10.484375 12.847656 -9.929688 C 13.570312 -9.457031 14.128906 -8.800781 14.515625 -7.96875 C 14.890625 -7.203125 15.078125 -6.363281 15.078125 -5.445312 Z M 13.246094 -5.445312 C 13.246094 -6.933594 12.800781 -7.972656 11.910156 -8.574219 C 11.1875 -9.058594 10.039062 -9.300781 8.46875 -9.300781 L 4.589844 -9.300781 L 4.589844 -1.5 L 8.46875 -1.5 C 10.082031 -1.5 11.242188 -1.753906 11.953125 -2.253906 C 12.8125 -2.851562 13.246094 -3.914062 13.246094 -5.445312 Z M 13.246094 -5.445312 "/></g></g></g><g fill="#1a1a1a" fill-opacity="1"><g transform="translate(131.523308, 261.16192)"><g><path d="M 14.476562 0 L 12.492188 0 L 11.117188 -2.648438 L 3.835938 -2.648438 L 2.460938 0 L 0.6875 0 L 6.570312 -10.761719 L 8.488281 -10.761719 Z M 10.386719 -4.027344 L 7.488281 -9.53125 L 4.589844 -4.027344 Z M 10.386719 -4.027344 "/></g></g></g><g fill="#1a1a1a" fill-opacity="1"><g transform="translate(148.661437, 261.16192)"><g><path d="M 14.808594 0 L 12.140625 0 L 7.757812 -4.191406 L 4.589844 -4.191406 L 4.589844 0 L 2.792969 0 L 2.792969 -10.761719 L 11.472656 -10.761719 C 12.25 -10.761719 12.824219 -10.601562 13.191406 -10.28125 C 13.5625 -9.964844 13.746094 -9.425781 13.746094 -8.675781 L 13.746094 -6.277344 C 13.746094 -5.207031 13.328125 -4.554688 12.492188 -4.316406 C 12.230469 -4.234375 11.359375 -4.191406 9.886719 -4.191406 Z M 11.929688 -6.695312 L 11.929688 -8.257812 C 11.929688 -8.675781 11.84375 -8.964844 11.667969 -9.125 C 11.496094 -9.285156 11.195312 -9.363281 10.761719 -9.363281 L 4.589844 -9.363281 L 4.589844 -5.589844 L 10.761719 -5.589844 C 11.195312 -5.589844 11.496094 -5.667969 11.667969 -5.820312 C 11.84375 -5.972656 11.929688 -6.265625 11.929688 -6.695312 Z M 11.929688 -6.695312 "/></g></g></g><g fill="#1a1a1a" fill-opacity="1"><g transform="translate(166.520727, 261.16192)"><g/></g></g><g fill="#1a1a1a" fill-opacity="1"><g transform="translate(176.299607, 261.16192)"><g/></g></g><g fill="#1a1a1a" fill-opacity="1"><g transform="translate(186.078486, 261.16192)"><g/></g></g><g fill="#1a1a1a" fill-opacity="1"><g transform="translate(195.852757, 261.16192)"><g><path d="M 12.742188 0 L 2.792969 0 L 2.792969 -10.761719 L 4.589844 -10.761719 L 4.589844 -1.5 L 12.742188 -1.5 Z M 12.742188 0 "/></g></g></g><g fill="#1a1a1a" fill-opacity="1"><g transform="translate(211.438693, 261.16192)"><g/></g></g><g fill="#1a1a1a" fill-opacity="1"><g transform="translate(221.217572, 261.16192)"><g/></g></g><g fill="#1a1a1a" fill-opacity="1"><g transform="translate(230.985567, 261.16192)"><g><path d="M 14.683594 0 L 13.683594 0 L 5.402344 -7.488281 C 5.136719 -7.722656 4.777344 -8.128906 4.316406 -8.699219 C 4.402344 -8.058594 4.441406 -7.320312 4.441406 -6.488281 L 4.441406 0 L 2.792969 0 L 2.792969 -10.761719 L 3.921875 -10.761719 L 11.972656 -3.566406 C 12.363281 -3.21875 12.773438 -2.765625 13.203125 -2.210938 C 13.089844 -2.878906 13.035156 -3.679688 13.035156 -4.609375 L 13.035156 -10.761719 L 14.683594 -10.761719 Z M 14.683594 0 "/></g></g></g><g fill="#1a1a1a" fill-opacity="1"><g transform="translate(250.437794, 261.16192)"><g><path d="M 13.640625 -2.542969 C 13.640625 -1.558594 13.46875 -0.886719 13.121094 -0.53125 C 12.773438 -0.175781 12.109375 0 11.136719 0 L 4.859375 0 C 3.804688 0 3.109375 -0.214844 2.773438 -0.648438 C 2.480469 -1.007812 2.335938 -1.738281 2.335938 -2.835938 L 4.003906 -3.234375 L 4.003906 -1.5 L 12.015625 -1.5 L 12.015625 -4.734375 L 5.257812 -4.734375 C 4.058594 -4.734375 3.308594 -5.039062 3.003906 -5.652344 C 2.835938 -5.984375 2.753906 -6.839844 2.753906 -8.21875 C 2.753906 -9.207031 2.925781 -9.875 3.273438 -10.230469 C 3.621094 -10.585938 4.28125 -10.761719 5.257812 -10.761719 L 10.992188 -10.761719 C 11.980469 -10.761719 12.648438 -10.582031 12.996094 -10.21875 C 13.34375 -9.859375 13.515625 -9.175781 13.515625 -8.175781 L 11.972656 -7.738281 L 11.972656 -9.300781 L 4.359375 -9.300781 L 4.359375 -6.300781 L 11.136719 -6.300781 C 12.109375 -6.300781 12.773438 -6.117188 13.121094 -5.757812 C 13.46875 -5.394531 13.640625 -4.726562 13.640625 -3.753906 Z M 13.640625 -2.542969 "/></g></g></g><g fill="#1a1a1a" fill-opacity="1"><g transform="translate(228.417469, 251.400598)"><g><path d="M -13.246094 0 L -2.792969 0 L -2.792969 10.761719 L -13.160156 10.761719 L -13.160156 9.324219 L -4.589844 9.324219 L -4.589844 6.320312 L -9.824219 6.320312 L -9.824219 4.902344 L -4.589844 4.902344 L -4.589844 1.480469 L -13.246094 1.480469 Z M -13.246094 0 "/></g></g></g><g fill="#1a1a1a" fill-opacity="1"><g transform="translate(180.677717, 251.400598)"><g><path d="M -14.789062 0 L -11.785156 0 L -4.589844 4.839844 L -4.589844 0 L -2.792969 0 L -2.792969 10.761719 L -4.589844 10.761719 L -4.589844 6.152344 L -11.304688 10.761719 L -13.933594 10.761719 L -6.132812 5.609375 Z M -14.789062 0 "/></g></g></g><path stroke-linecap="butt" transform="matrix(0.746114, 0, 0, 0.75, 267.083601, 257.036935)" fill="none" stroke-linejoin="miter" d="M -0.00210331 -0.00237183 L 51.26876 -0.00237183 " stroke="#1a1a1a" stroke-width="1" stroke-opacity="1" stroke-miterlimit="4"/><path stroke-linecap="butt" transform="matrix(0.755219, 0, 0, 0.75, 73.768821, 255.746117)" fill="none" stroke-linejoin="miter" d="M 0.000940116 -0.0000307413 L 51.641564 -0.0000307413 " stroke="#1a1a1a" stroke-width="1" stroke-opacity="1" stroke-miterlimit="4"/></svg>